<svg width="211" height="82" viewBox="0 0 211 82" fill="none" xmlns="http://www.w3.org/2000/svg">
<g id="Union">
<path fill-rule="evenodd" clip-rule="evenodd" d="M14.341 12.2171V24.7736H47.4616C49.8677 24.7736 51.754 24.3865 53.0375 23.3458C54.3598 22.2738 54.8836 20.6452 54.8836 18.5655C54.8836 16.3296 54.3696 14.6526 53.0347 13.5811C51.744 12.5451 49.8482 12.2171 47.4616 12.2171H14.341ZM15.8079 23.3108V13.6799H47.4616C49.7922 13.6799 51.2407 14.0189 52.115 14.7206C52.9451 15.387 53.4168 16.5185 53.4168 18.5655C53.4168 20.4178 52.9549 21.5276 52.1122 22.2108C51.2307 22.9255 49.7727 23.3108 47.4616 23.3108H15.8079Z" fill="black" fill-opacity="0.2"/>
<path fill-rule="evenodd" clip-rule="evenodd" d="M0.0484761 0V49.3482H15.8079V35.446H33.0505L50.3002 49.3482H70.6337L53.1613 35.6576L51.4535 34.6168L52.0754 34.6027L52.0961 34.6011C57.5037 34.1725 61.9121 32.6653 64.9731 29.8262C68.0518 26.9705 69.669 22.8597 69.669 17.4421C69.669 10.9838 67.5414 6.56109 63.7741 3.78544C60.0507 1.04211 54.846 0 48.8697 0H0.0484761ZM1.51528 47.8854V1.46277H48.8697C54.7217 1.46277 59.55 2.49196 62.9025 4.96195C66.2111 7.39963 68.2022 11.3323 68.2022 17.4421C68.2022 22.5565 66.6863 26.2394 63.9741 28.755C61.2477 31.2838 57.2144 32.7251 52.0005 33.1413L46.4267 33.2676L52.3228 36.8609L66.3927 47.8854H50.8188L33.5691 33.9832H14.341V47.8854H1.51528Z" fill="black" fill-opacity="0.2"/>
<path fill-rule="evenodd" clip-rule="evenodd" d="M74.4431 0V49.3482H139.98V36.7215H90.2025V29.7587H138.642V19.098H90.2025V12.6267H139.98V0H74.4431ZM75.9099 47.8854V1.46277H138.513V11.1639H88.7357V20.5608H137.176V28.2959H88.7357V38.1843H138.513V47.8854H75.9099Z" fill="black" fill-opacity="0.2"/>
<path fill-rule="evenodd" clip-rule="evenodd" d="M145.4 0V49.3482H161.159V33.6906H209.599V20.9937H161.159V13.6799H210.937V0H145.4ZM146.867 47.8854V1.46277H209.47V12.2171H159.692V22.4565H208.132V32.2279H159.692V47.8854H146.867Z" fill="black" fill-opacity="0.2"/>
<path fill-rule="evenodd" clip-rule="evenodd" d="M0 51.9551V82H9.97683V64.8514L23.5074 82H32.8292L46.3598 64.8514V82H56.3366V51.9551H45.0475L28.2728 73.1227L11.4568 51.9551H0ZM1.43687 80.5671V53.388H10.762L28.2742 75.432L45.7434 53.388H54.8997V80.5671H47.7967V60.713L32.1315 80.5671H24.2051L8.53996 60.713V80.5671H1.43687Z" fill="black" fill-opacity="0.2"/>
<path fill-rule="evenodd" clip-rule="evenodd" d="M59.4468 51.9551V82H99.1662V73.8965H69.4236V70.2951H98.3669V63.3663H69.4236V60.0585H99.1662V51.9551H59.4468ZM60.8837 80.5671V53.388H97.7294V58.6256H67.9867V64.7992H96.9301V68.8622H67.9867V75.3295H97.7294V80.5671H60.8837Z" fill="black" fill-opacity="0.2"/>
<path fill-rule="evenodd" clip-rule="evenodd" d="M110.384 59.2549V74.7002H129.697C132.669 74.7002 134.998 74.3652 136.569 73.1495C138.194 71.892 138.829 69.8478 138.829 66.9356C138.829 64.062 138.192 62.0388 136.566 60.7929C134.996 59.5901 132.67 59.2549 129.697 59.2549H110.384ZM111.821 73.2672V60.6878H129.697C132.656 60.6878 134.536 61.0448 135.691 61.9292C136.789 62.7705 137.392 64.2294 137.392 66.9356C137.392 69.687 136.787 71.1669 135.688 72.0175C134.535 72.91 132.656 73.2672 129.697 73.2672H111.821Z" fill="black" fill-opacity="0.2"/>
<path fill-rule="evenodd" clip-rule="evenodd" d="M101.844 51.9551V82H130.496C135.447 82 139.754 81.2112 142.831 78.8807C145.951 76.5175 147.664 72.6827 147.664 66.9356C147.664 61.3521 145.97 57.543 142.866 55.1611C139.803 52.8096 135.497 51.9551 130.496 51.9551H101.844ZM103.281 80.5671V53.388H130.496C135.382 53.388 139.301 54.2326 141.99 56.2966C144.639 58.3302 146.227 61.6531 146.227 66.9356C146.227 72.3899 144.616 75.7291 141.962 77.7396C139.265 79.7827 135.348 80.5671 130.496 80.5671H103.281Z" fill="black" fill-opacity="0.2"/>
<path fill-rule="evenodd" clip-rule="evenodd" d="M185.277 57.4853L177.079 70.5468H193.425L185.277 57.4853ZM190.839 69.1139H179.673L185.273 60.1919L190.839 69.1139Z" fill="black" fill-opacity="0.2"/>
<path fill-rule="evenodd" clip-rule="evenodd" d="M149.911 51.9551V82H171.579L175.071 76.4622H195.477L198.927 82H211L191.386 51.9551H179.249L159.888 81.5457V51.9551H149.911ZM151.348 80.5671V53.388H158.451V80.5671H151.348ZM162.244 80.5671L180.027 53.388H190.607L208.35 80.5671H199.726L196.276 75.0293H174.277L170.785 80.5671H162.244Z" fill="black" fill-opacity="0.2"/>
</g>
</svg>
