<svg width="24" height="25" viewBox="0 0 24 25" fill="none" xmlns="http://www.w3.org/2000/svg">
<g id="link-external">
<path id="Icon" d="M21 9.35571L21 3.35571M21 3.35571H15M21 3.35571L13 11.3557M10 5.35571H7.8C6.11984 5.35571 5.27976 5.35571 4.63803 5.68269C4.07354 5.97031 3.6146 6.42926 3.32698 6.99374C3 7.63548 3 8.47556 3 10.1557V16.5557C3 18.2359 3 19.076 3.32698 19.7177C3.6146 20.2822 4.07354 20.7411 4.63803 21.0287C5.27976 21.3557 6.11984 21.3557 7.8 21.3557H14.2C15.8802 21.3557 16.7202 21.3557 17.362 21.0287C17.9265 20.7411 18.3854 20.2822 18.673 19.7177C19 19.076 19 18.2359 19 16.5557V14.3557" stroke="white" stroke-opacity="0.85" stroke-width="2" stroke-linecap="round" stroke-linejoin="round"/>
</g>
</svg>
