<svg width="283" height="92" viewBox="0 0 283 92" fill="none" xmlns="http://www.w3.org/2000/svg">
<path d="M103.254 19.8672C109.955 19.8672 112.733 18.9716 112.733 15.7689C112.733 12.5934 110.363 11.5892 105.76 11.3178L99.1409 10.8835C97.4249 10.775 96.4443 10.6664 96.4443 9.52649C96.4443 8.35943 97.6973 8.1423 101.729 8.1423C104.915 8.1423 108.211 8.44086 111.153 8.92939L111.779 6.24243C109.464 5.86246 105.487 5.4282 102.655 5.4282C96.0902 5.4282 92.6309 6.18815 92.6309 9.55364C92.6309 12.512 94.4559 13.5705 98.7051 13.8148L105.188 14.1947C107.857 14.3847 108.919 14.5476 108.919 15.7418C108.919 16.8817 107.748 17.126 103.771 17.126C99.9308 17.126 96.2536 16.6103 93.5843 16.1218L92.9033 18.7816C95.3275 19.3244 99.1954 19.8672 103.254 19.8672Z" fill="black" fillOpacity="0.1"/>
<path d="M119.445 3.93545V0H115.387V3.93545H119.445Z" fill="black" fillOpacity="0.1"/>
<path d="M115.387 5.80818V19.5144H119.445V5.80818H115.387Z" fill="black" fillOpacity="0.1"/>
<path d="M122.888 5.80818V19.5144H126.946V10.3136C130.079 9.39079 132.884 8.87511 135.145 8.87511C138.632 8.87511 140.184 10.1507 140.184 12.5934V19.5144H144.243V11.9963C144.243 7.32807 141.41 5.45534 136.453 5.45534C132.966 5.45534 129.561 6.43242 126.728 7.57234L126.456 5.80818H122.888Z" fill="black" fillOpacity="0.1"/>
<path d="M158.663 5.45534C150.328 5.45534 146.842 7.57234 146.842 12.6206C146.842 17.6688 150.328 19.8129 158.663 19.8129C162.231 19.8129 165.391 19.3515 167.761 18.8087L166.916 15.5247C165.01 15.9318 162.258 16.366 158.091 16.366C152.861 16.366 150.9 15.5247 150.9 12.6206C150.9 9.74362 152.861 8.90225 158.091 8.90225C162.258 8.90225 165.01 9.33651 166.916 9.74362L167.761 6.4867C165.391 5.91674 162.095 5.45534 158.663 5.45534Z" fill="black" fillOpacity="0.1"/>
<path fill-rule="evenodd" clip-rule="evenodd" d="M189.745 15.8504C188.247 16.1218 185.033 16.6374 180.974 16.6374C175.962 16.6374 173.865 16.0946 173.429 13.6248H190.862C190.916 13.2991 190.971 12.3492 190.971 11.7792C190.971 7.11095 186.64 5.45534 180.239 5.45534C173.347 5.45534 169.425 7.51806 169.425 12.6477C169.425 17.8588 172.966 19.8672 180.62 19.8672C184.161 19.8672 188.138 19.4058 190.589 18.8087L189.745 15.8504ZM173.429 11.4535C173.81 9.03796 175.717 8.22373 180.102 8.22373C185.169 8.22373 186.694 9.22795 186.966 11.4535H173.429Z" fill="black" fillOpacity="0.1"/>
<path fill-rule="evenodd" clip-rule="evenodd" d="M114.648 36.9244C107.077 36.9244 101.08 38.5676 96.8993 42.0921C92.6316 45.6903 90.6596 51.361 90.6596 58.7254C90.6596 65.3137 92.2676 70.5776 95.7161 74.2731L96.7644 75.3964L134.293 38.0972L131.545 37.5648C129.324 37.1344 126.853 36.9244 124.141 36.9244H114.648ZM98.8195 44.3533C102.257 41.4549 107.453 39.8865 114.648 39.8865H124.141C125.548 39.8865 126.869 39.9465 128.104 40.0646L96.9104 71.0676C94.7767 68.1529 93.6323 64.0932 93.6323 58.7254C93.6323 51.8425 95.4693 47.178 98.8195 44.3533Z" fill="black" fillOpacity="0.1"/>
<path fill-rule="evenodd" clip-rule="evenodd" d="M142.976 43.1675L141.927 42.0643L104.309 79.4532L107.076 79.975C109.353 80.4041 111.88 80.6139 114.648 80.6139H124.141C131.713 80.6139 137.71 78.9707 141.89 75.4462L141.9 75.4377C146.157 71.7834 148.13 66.092 148.13 58.7254C148.13 52.1304 146.489 46.8626 142.976 43.1675ZM114.648 77.6518C113.182 77.6518 111.806 77.5896 110.517 77.4669L141.803 46.3714C143.987 49.2871 145.157 53.35 145.157 58.7254C145.157 65.6025 143.323 70.3034 139.965 73.1892C136.527 76.085 131.334 77.6518 124.141 77.6518H114.648Z" fill="black" fillOpacity="0.1"/>
<path fill-rule="evenodd" clip-rule="evenodd" d="M113.681 25.5383C102.146 25.5383 92.9416 28.2786 86.2606 33.949C79.5714 39.6177 76.3319 47.9675 76.3319 58.7254C76.3319 69.5393 79.5697 77.9445 86.2545 83.6717L86.2658 83.6813C92.9467 89.2904 102.149 92 113.681 92H125.108C136.696 92 145.903 89.2919 152.529 83.6769L152.535 83.6717C159.22 77.9445 162.458 69.5393 162.458 58.7254C162.458 47.9692 159.219 39.6202 152.532 33.9516C145.906 28.2765 136.697 25.5383 125.108 25.5383H113.681ZM88.1874 36.2047C94.1639 31.1318 102.597 28.5004 113.681 28.5004H125.108C136.254 28.5004 144.683 31.1332 150.597 36.2003L150.603 36.2054C156.454 41.1638 159.485 48.5794 159.485 58.7254C159.485 68.9302 156.454 76.4063 150.6 81.423C144.686 86.4334 136.256 89.0379 125.108 89.0379H113.681C102.597 89.0379 94.1634 86.4356 88.187 81.4208C82.3351 76.4042 79.3047 68.9287 79.3047 58.7254C79.3047 48.5794 82.3363 41.1631 88.1874 36.2047Z" fill="black" fillOpacity="0.1"/>
<path fill-rule="evenodd" clip-rule="evenodd" d="M217.744 63.1125L217.985 64.8018C218.688 69.7356 220.374 73.6405 223.203 76.3104C226.05 78.9983 229.873 80.2635 234.487 80.2635H257.781C261.153 80.2635 263.977 79.6575 266.077 78.2631L266.091 78.2537L266.104 78.2441C268.312 76.7043 269.375 74.4105 269.375 71.6004C269.375 68.8334 268.299 66.5891 266.077 65.113C263.977 63.7185 261.153 63.1125 257.781 63.1125H217.744ZM225.247 74.1601C223.347 72.3668 221.97 69.717 221.22 66.0747H257.781C260.854 66.0747 263.011 66.6365 264.428 67.5776C265.722 68.4372 266.403 69.6963 266.403 71.6004C266.403 73.5714 265.713 74.8954 264.414 75.8077C262.997 76.7433 260.844 77.3014 257.781 77.3014H234.487C230.429 77.3014 227.41 76.2018 225.247 74.1601Z" fill="black" fillOpacity="0.1"/>
<path fill-rule="evenodd" clip-rule="evenodd" d="M240.552 25.9762C229.038 25.9762 219.848 28.5315 213.169 33.831L213.163 33.8352C206.43 39.2279 203.203 47.6409 203.203 58.7254C203.203 68.8967 205.788 77.0313 211.147 82.9295L211.152 82.9353C216.535 88.7978 224.063 91.6497 233.52 91.6497H260.506C267.258 91.6497 272.771 89.949 276.867 86.3784C281.001 82.7742 283 77.7494 283 71.5129C283 65.4386 280.992 60.5325 276.862 56.9933C272.767 53.4257 267.255 51.7264 260.506 51.7264H221.274C222.269 47.687 224.232 44.9748 227.05 43.37L227.056 43.3663C230.498 41.3836 235.278 40.3245 241.519 40.3245H277.462V25.9762H240.552ZM215.022 36.1469C221 31.4042 229.448 28.9383 240.552 28.9383H274.49V37.3624H241.519C234.988 37.3624 229.631 38.463 225.572 40.7999C221.392 43.1814 218.92 47.3441 217.99 52.9666L217.705 54.6885H260.506C266.762 54.6885 271.504 56.2577 274.909 59.2269L274.919 59.2355C278.286 62.1189 280.027 66.1451 280.027 71.5129C280.027 77.0712 278.276 81.2137 274.909 84.1492C271.504 87.1184 266.762 88.6875 260.506 88.6875H233.52C224.697 88.6875 218.045 86.0519 213.348 80.9393C208.629 75.7435 206.176 68.4053 206.176 58.7254C206.176 48.2075 209.218 40.7976 215.022 36.1469Z" fill="black" fillOpacity="0.1"/>
<path fill-rule="evenodd" clip-rule="evenodd" d="M1.40633 26.0638V40.4121H49.6554C52.2625 40.4121 53.9406 40.9708 54.9538 41.8316C55.9217 42.6539 56.5195 43.9561 56.5195 46.0254C56.5195 48.0947 55.9217 49.397 54.9538 50.2193C53.9406 51.0801 52.2625 51.6388 49.6554 51.6388H20.7363C14.2212 51.6388 9.01517 53.3104 5.36718 56.8804C1.72828 60.4416 -6.10352e-05 65.391 -6.10352e-05 71.5129V91.5621H71.4466V77.3014H16.5971V71.688C16.5971 69.6758 17.135 68.3497 18.0077 67.4802C18.9256 66.5655 20.391 65.9871 22.6701 65.9871H52.3802C58.7397 65.9871 63.8752 64.2758 67.5694 60.662C71.3187 57.0521 73.1167 52.1074 73.1167 46.0254C73.1167 39.9434 71.3187 34.9988 67.5694 31.3888C63.8752 27.7751 58.7397 26.0638 52.3802 26.0638H1.40633ZM4.37907 37.4499V29.0259H52.3802C58.2071 29.0259 62.5046 30.5832 65.4904 33.5062L65.4997 33.5151C68.5446 36.4445 70.1439 40.5487 70.1439 46.0254C70.1439 51.5021 68.5446 55.6063 65.4997 58.5357L65.4904 58.5447C62.5046 61.4677 58.2071 63.025 52.3802 63.025H22.6701C19.9097 63.025 17.5661 63.7311 15.9056 65.3856C14.3171 66.9685 13.6244 69.1458 13.6244 71.688V80.2635H68.4738V88.5999H2.97268V71.5129C2.97268 65.9566 4.52592 61.8555 7.4502 58.9937C10.3654 56.1408 14.7111 54.6009 20.7363 54.6009H49.6554C52.6152 54.6009 55.1123 53.9773 56.8826 52.4733C58.6982 50.9307 59.4922 48.6858 59.4922 46.0254C59.4922 43.3651 58.6982 41.1202 56.8826 39.5776C55.1123 38.0736 52.6152 37.4499 49.6554 37.4499H4.37907Z" fill="black" fillOpacity="0.1"/>
<path fill-rule="evenodd" clip-rule="evenodd" d="M161.251 26.1514V40.4996H179.886V91.5621H196.483V26.1514H161.251ZM164.224 37.5375V29.1135H193.51V88.5999H182.859V37.5375H164.224Z" fill="black" fillOpacity="0.1"/>
</svg>
